<svg width="1440" height="4561" viewBox="0 0 1440 4561" fill="none" xmlns="http://www.w3.org/2000/svg">
<path fill-rule="evenodd" clip-rule="evenodd" d="M-0.447266 138.076C-0.447266 138.076 91.4212 302.585 218.544 329.663C328.29 353.04 629.465 237.681 721.17 237.681C812.876 237.681 927.274 338.068 987.768 329.663C1184.22 302.369 1246.35 227.517 1320.01 138.076C1393.68 48.6345 1378.56 -12.4593 1440.5 3L1442.79 1698.7L-0.447266 1267.73V138.076Z" fill="#FD7EA3"/>
<path fill-rule="evenodd" clip-rule="evenodd" d="M-0.447266 1237.97C-0.447266 1237.97 63.0501 1151.16 101.281 1151.16C160.413 1151.16 222.051 1087.56 237.586 1075.49C340.243 995.73 393.276 1071.77 487.647 1042.99C568.327 1018.39 572.899 1156.89 640.99 1167.41C664.389 1171.02 760.997 1221.98 793.332 1254.22C856.858 1317.56 921.836 1328.76 1031.37 1291.36C1140.11 1254.22 1174.51 1168.06 1303.98 1137.7C1333.42 1130.79 1399.2 1167.53 1442.79 1254.22C1452.21 1272.96 1442.79 1320.14 1442.79 1320.14V2219.82H-0.447266V1237.97Z" fill="#91D7CD"/>
<path fill-rule="evenodd" clip-rule="evenodd" d="M-247 1399.22C-247 1399.22 -117.481 1784.18 -32.5193 1902.85C9.45842 1961.49 66.3305 2102.42 126.337 2143.4C171.84 2174.48 215.806 2114.92 275.671 2109.37C414.483 2096.49 420.351 1943.94 524.73 2010.48C565.896 2036.72 658.926 2078.44 764.768 2073.49C842.329 2069.87 932.552 2025.47 985.262 2010.48C1095.95 1979.01 1064.27 1925.54 1172.18 1902.85C1194.96 1898.06 1235.82 1869.74 1300.47 1840.76C1365.11 1811.78 1518.68 1910.22 1548.52 1913.43C1596.36 1918.58 1486.38 1929.07 1486.38 1929.07V3197.59H43.1503L-147.14 2018.15L-247 1399.22Z" fill="#FFF3F7"/>
<path fill-rule="evenodd" clip-rule="evenodd" d="M-0.447266 2808.05C-0.447266 2808.05 91.4212 3065.99 218.544 3108.45C261.763 3122.88 384.848 2956.07 455.074 2902.21C577.849 2808.05 665.579 2964.22 721.17 2964.22C812.875 2964.22 927.274 3121.62 987.767 3108.45C1113.39 3081.08 1143.83 2977.04 1197.74 2902.21C1228.14 2860.02 1293.45 2858.61 1320.01 2808.05C1393.68 2667.81 1599.84 2939.98 1661.78 2964.22C1737.99 2994.05 1540.51 2103.67 1540.51 2103.67L1442.79 4186.53H-0.447266V2808.05Z" fill="#FD7EA3"/>
<path fill-rule="evenodd" clip-rule="evenodd" d="M-121.354 3737.56C-121.354 3737.56 -272.382 3799.28 -236.466 3781.13C-215.572 3770.58 143.27 3737.27 165.423 3737.56C208.198 3738.13 207.965 3810.18 316.069 3810.18C424.174 3810.18 430.167 3865.24 588.834 3874.85C651.252 3878.63 590.268 4006.58 719.46 4006.61C771.206 4006.62 1012.62 3851.79 1141.37 3874.85C1184.9 3882.65 1216.34 3890.79 1337.56 3845.11C1380.75 3828.83 1439.78 3810.18 1439.78 3810.18V4561H719.46H-24.5008L-121.354 3737.56Z" fill="#DEF8FF"/>
</svg>
