<svg width="1440" height="1183" viewBox="0 0 1440 1183" fill="none" xmlns="http://www.w3.org/2000/svg">
<path fill-rule="evenodd" clip-rule="evenodd" d="M0 200.241C0 200.241 63.3551 113.424 101.5 113.424C160.5 113.424 222 49.8206 237.5 37.7497C339.926 -42.016 392.841 34.0324 487 5.2514C567.5 -19.3545 572.062 119.16 640 129.674C663.346 133.286 759.738 184.248 792 216.491C855.384 279.836 920.216 291.041 1029.5 253.632C1138 216.491 1172.33 130.33 1301.5 99.9609C1330.88 93.0533 1396.51 129.799 1440 216.491C1449.4 235.23 1440 282.416 1440 282.416V1182.16H0V200.241Z" fill="#91D7CD"/>
</svg>
