<svg width="1440" height="1799" viewBox="0 0 1440 1799" fill="none" xmlns="http://www.w3.org/2000/svg">
<path fill-rule="evenodd" clip-rule="evenodd" d="M-246 0.497192C-246 0.497192 -116.771 385.488 -32 504.17C9.88364 562.808 66.6283 703.752 126.5 744.737C171.901 775.816 215.769 716.253 275.5 710.699C414 697.819 419.856 545.263 524 611.804C565.074 638.048 657.896 679.766 763.5 674.821C840.887 671.197 930.909 626.79 983.5 611.804C1093.94 580.333 1062.33 526.862 1170 504.17C1192.72 499.381 1233.5 471.052 1298 442.073C1362.5 413.095 1515.73 511.537 1545.5 514.749C1593.23 519.898 1483.5 530.389 1483.5 530.389V1799H43.5L-146.364 619.479L-246 0.497192Z" fill="#FFF3F7"/>
</svg>
