<svg width="431" height="408" viewBox="0 0 431 408" fill="none" xmlns="http://www.w3.org/2000/svg">
<path fill-rule="evenodd" clip-rule="evenodd" d="M429 192.4C429 86.1436 332.963 0 214.5 0C96.0369 0 0 86.1436 0 192.4C0 298.657 96.0369 384.8 214.5 384.8C238.918 384.8 262.351 381.071 284.215 374.321C284.428 374.255 284.618 374.161 284.783 374.043C292.32 371.963 299.066 369.294 304.749 366.168C304.969 366.312 305.19 366.455 305.41 366.599C305.457 366.629 305.516 366.635 305.568 366.614C305.618 366.594 305.675 366.598 305.721 366.625C347.087 391.592 404.777 402.938 423.142 406.065C425.034 406.388 426.211 404.06 424.985 402.583C404.129 377.446 396.415 332.12 393.589 299.095C393.548 298.612 393.685 298.138 393.971 297.747C416.096 267.478 429 231.301 429 192.4ZM273 169C267.477 169 263 173.477 263 179V268H322V179C322 173.477 317.523 169 312 169H273ZM185 79C185 73.4771 189.477 69 195 69H233.721C239.244 69 243.721 73.4771 243.721 79V268H185V79ZM117 122C111.477 122 107 126.477 107 132V268H166V132C166 126.477 161.523 122 156 122H117ZM108 284H322V295H108V284Z" transform="translate(1 1)" fill="url(#paint0_linear)" stroke="#52C7ED"/>
<defs>
<linearGradient id="paint0_linear" x2="1" gradientUnits="userSpaceOnUse" gradientTransform="translate(429) scale(429 407) rotate(90)">
<stop stop-color="#20B9DB"/>
<stop offset="1" stop-color="#0076FF"/>
</linearGradient>
</defs>
</svg>
