<svg width="431" height="408" viewBox="0 0 431 408" fill="none" xmlns="http://www.w3.org/2000/svg">
<path fill-rule="evenodd" clip-rule="evenodd" d="M214.5 0C332.963 0 429 86.1436 429 192.4C429 231.301 416.096 267.478 393.971 297.747C393.685 298.138 393.548 298.612 393.589 299.095C396.415 332.12 404.129 377.446 424.985 402.583C426.211 404.06 425.034 406.388 423.142 406.065C404.777 402.938 347.087 391.593 305.721 366.625C305.675 366.598 305.618 366.594 305.568 366.614C305.516 366.635 305.457 366.629 305.41 366.599C305.19 366.455 304.969 366.312 304.749 366.168C299.066 369.294 292.32 371.963 284.782 374.043C284.617 374.16 284.428 374.255 284.215 374.32C262.351 381.071 238.918 384.8 214.5 384.8C96.0369 384.8 0 298.657 0 192.4C0 86.1436 96.0369 0 214.5 0ZM84 94C84 88.4771 88.4772 84 94 84H132.721C138.244 84 142.721 88.4771 142.721 94V283H154.139V168C154.139 162.477 158.617 158 164.139 158H202.861C208.384 158 212.861 162.477 212.861 168V283H221V210C221 204.477 225.477 200 231 200H270C275.523 200 280 204.477 280 210V283H289V131C289 125.477 293.477 121 299 121H338C343.523 121 348 125.477 348 131V283V293H84V283V94Z" transform="translate(1 1)" fill="url(#paint0_linear)" stroke="#52C7ED"/>
<defs>
<linearGradient id="paint0_linear" x2="1" gradientUnits="userSpaceOnUse" gradientTransform="translate(429) scale(429 407) rotate(90)">
<stop stop-color="#20B9DB"/>
<stop offset="1" stop-color="#0076FF"/>
</linearGradient>
</defs>
</svg>
