<svg width="500" height="408" viewBox="0 0 500 408" fill="none" xmlns="http://www.w3.org/2000/svg">
<path fill-rule="evenodd" clip-rule="evenodd" d="M429 192.4C429 86.1433 332.963 0 214.5 0C96.0369 0 0 86.1433 0 192.4C0 298.657 96.0369 384.8 214.5 384.8C238.918 384.8 262.351 381.071 284.215 374.321C284.428 374.255 284.618 374.161 284.783 374.043C292.32 371.963 299.066 369.294 304.749 366.168C304.969 366.312 305.19 366.455 305.41 366.599C305.457 366.629 305.516 366.635 305.568 366.614C305.618 366.594 305.675 366.598 305.721 366.625C347.087 391.593 404.777 402.938 423.142 406.065C425.034 406.388 426.211 404.06 424.985 402.583C404.129 377.446 396.415 332.12 393.589 299.095C393.548 298.612 393.685 298.138 393.971 297.747C416.096 267.478 429 231.301 429 192.4ZM273 169C267.477 169 263 173.477 263 179V268H322V179C322 173.477 317.523 169 312 169H273ZM185 79C185 73.4771 189.477 69 195 69H233.721C239.244 69 243.721 73.4771 243.721 79V268H185V79ZM117 122C111.477 122 107 126.477 107 132V268H166V132C166 126.477 161.523 122 156 122H117ZM108 284H322V295H108V284Z" transform="translate(1 1)" fill="url(#paint0_linear)" stroke="#52C7ED"/>
<rect width="235.541" height="104.897" rx="30" transform="translate(264 1)" fill="#FF0000"/>
<path d="M49.7718 57.08C51.4571 57.08 52.8758 56.888 54.0278 56.504C55.2011 56.0987 56.1504 55.5547 56.8758 54.872C57.6224 54.1893 58.1558 53.3893 58.4758 52.472C58.8171 51.5333 58.9878 50.5307 58.9878 49.464C58.9878 47.288 58.2411 45.5813 56.7478 44.344C55.2758 43.0853 52.9398 42.456 49.7398 42.456H40.4918V57.08H49.7718ZM40.4918 22.776V37.176H47.9798C51.1798 37.176 53.5691 36.5573 55.1478 35.32C56.7264 34.0827 57.5158 32.3013 57.5158 29.976C57.5158 27.4373 56.7691 25.6027 55.2758 24.472C53.8038 23.3413 51.4891 22.776 48.3318 22.776H40.4918ZM48.3318 16.92C51.2758 16.92 53.7931 17.208 55.8838 17.784C57.9744 18.3387 59.6918 19.1387 61.0358 20.184C62.3798 21.2293 63.3611 22.5093 63.9798 24.024C64.6198 25.5173 64.9398 27.2027 64.9398 29.08C64.9398 30.168 64.7691 31.224 64.4278 32.248C64.1078 33.2507 63.5958 34.2 62.8918 35.096C62.2091 35.9707 61.3451 36.76 60.2998 37.464C59.2544 38.168 58.0171 38.7547 56.5878 39.224C63.1158 40.6107 66.3798 44.0773 66.3798 49.624C66.3798 51.5867 66.0064 53.3893 65.2598 55.032C64.5344 56.6533 63.4678 58.0613 62.0598 59.256C60.6731 60.4293 58.9558 61.3467 56.9078 62.008C54.8598 62.6693 52.5238 63 49.8998 63H33.0038V16.92H48.3318ZM103.584 56.952L103.552 63H74.8163V16.92H103.552V22.968H82.3363V36.856H99.2963V42.712H82.3363V56.952H103.584ZM143.403 23.16H129.035V63H121.579V23.16H107.179V16.92H143.403V23.16ZM169.7 45.72L163.364 28.888C162.852 27.5867 162.33 25.9333 161.796 23.928C161.562 24.9307 161.306 25.8587 161.028 26.712C160.751 27.544 160.495 28.28 160.26 28.92L153.924 45.72H169.7ZM183.876 63H178.084C177.423 63 176.89 62.84 176.484 62.52C176.079 62.1787 175.77 61.7627 175.556 61.272L171.716 51.096H151.876L148.036 61.272C147.866 61.6987 147.567 62.0933 147.14 62.456C146.714 62.8187 146.18 63 145.54 63H139.748L158.02 16.92H165.604L183.876 63Z" transform="translate(276 14.4482)" fill="white"/>
<defs>
<linearGradient id="paint0_linear" x2="1" gradientUnits="userSpaceOnUse" gradientTransform="translate(429) scale(429 407) rotate(90)">
<stop stop-color="#20B9DB"/>
<stop offset="1" stop-color="#0076FF"/>
</linearGradient>
</defs>
</svg>
